<?xml version="1.0" encoding="UTF-8" standalone="no"?>
<!--
SPDX-FileCopyrightText: tebriz159 <https://github.com/tebriz159>, Adam Evyčędo <adam@bimba.app>

SPDX-License-Identifier: GPL-3.0-or-later
-->

<svg
   viewBox="0 0 47.999999 48"
   id="vector"
   version="1.1"
   width="48"
   height="48"
   xmlns="http://www.w3.org/2000/svg"
   xmlns:svg="http://www.w3.org/2000/svg"
   xmlns:rdf="http://www.w3.org/1999/02/22-rdf-syntax-ns#"
   xmlns:cc="http://creativecommons.org/ns#"
   xmlns:dc="http://purl.org/dc/elements/1.1/">
  <metadata
     id="metadata176">
    <rdf:RDF>
      <cc:Work
         rdf:about="">
        <dc:format>image/svg+xml</dc:format>
        <dc:type
           rdf:resource="http://purl.org/dc/dcmitype/StillImage" />
      </cc:Work>
    </rdf:RDF>
  </metadata>
  <defs
     id="defs174" />
  <g
     id="g1252"
     transform="matrix(0.43478261,0,0,0.43478261,4,4)">
    <path
       fill="none"
       stroke="#000000"
       stroke-width="0.645279"
       d="M 46,92 C 66.156946,92 77.36246,92 84.681245,84.681247 92,77.362462 92,66.15695 92,46.000001 92,25.843058 92,14.637536 84.681245,7.3187613 77.36246,0 66.156946,0 46,0 25.843059,0 14.637536,0 7.3187622,7.3187613 0,14.637536 0,25.843058 0,46.000001 0,66.15695 0,77.362462 7.3187622,84.681247 14.637536,92 25.843059,92 46,92 Z"
       id="path922"
       style="fill:#3a3a3b;fill-opacity:1;stroke:none" />
    <g
       id="group_1"
       transform="matrix(0.16904335,0,0,0.16904335,-7.9999769,-8)"
       style="display:inline">
      <g
         id="group"
         transform="translate(173.03255,173.03255)">
        <path
           id="path"
           d="m 62.962,292.5 v 0 c -3.7,-0.9 -5.7,-3.8 -4.3,-6.5 l 32.3,-62.9 c 1.3,-2.6 5.5,-4 9.2,-3 v 0 c 3.7,0.9 5.7,3.8 4.3,6.5 l -32.3,62.9 c -1.3,2.6 -5.4,4 -9.2,3 z"
           style="fill:#54af39" />
        <path
           id="path_1"
           d="m 229.662,292.5 v 0 c 3.7,-0.9 5.7,-3.8 4.3,-6.5 l -32.3,-62.9 c -1.3,-2.6 -5.5,-4 -9.2,-3 v 0 c -3.7,0.9 -5.7,3.8 -4.3,6.5 l 32.3,62.9 c 1.3,2.6 5.5,4 9.2,3 z"
           style="fill:#54af39" />
        <path
           id="path_2"
           d="m 151.362,36.9 -0.6,0.2 c -1.8,0.7 -3.8,-0.3 -4.5,-2.1 l -9.6,-26.7 c -0.7,-1.8 0.3,-3.8 2.1,-4.5 l 0.6,-0.2 c 1.8,-0.7 3.8,0.3 4.5,2.1 l 9.6,26.7 c 0.7,1.9 -0.3,3.9 -2.1,4.5 z"
           style="fill:#54af39" />
        <path
           id="path_3"
           d="m 180.662,3.8 v 0 c 0,2.1 -1.7,3.8 -3.8,3.8 h -61 c -2.1,0 -3.8,-1.7 -3.8,-3.8 v 0 c 0,-2.1 1.7,-3.8 3.8,-3.8 h 61 c 2.1,0 3.8,1.7 3.8,3.8 z"
           style="fill:#54af39" />
        <path
           id="path_4"
           d="m 218.762,236.7 h -144.9 c -13.3,0 -24,-10.8 -24,-24 v -108 c 0,-41.3 33.5,-74.9 74.9,-74.9 h 43.3 c 41.3,0 74.9,33.5 74.9,74.9 v 108 c -0.1,13.2 -10.9,24 -24.2,24 z"
           style="fill:#54af39" />
        <path
           id="path_5"
           d="m 212.562,146.2 h -132.5 c -5.6,0 -10.2,-4.5 -10.2,-10.2 v -34.9 c 0,-16.9 13.7,-30.6 30.6,-30.6 h 91.7 c 16.9,0 30.6,13.7 30.6,30.6 V 136 c -0.1,5.7 -4.6,10.2 -10.2,10.2 z"
           style="fill:#ffffff" />
        <path
           id="path_6"
           d="m 161.462,55.5 h -30.3 c -3.2,0 -5.7,-2.6 -5.7,-5.7 v 0 c 0,-3.2 2.6,-5.7 5.7,-5.7 h 30.3 c 3.2,0 5.7,2.6 5.7,5.7 v 0 c 0,3.1 -2.6,5.7 -5.7,5.7 z"
           style="fill:#ffffff" />
        <path
           id="path_7"
           d="m 87.062,191.9 m -14.8,0 c 0,-3.924 1.56,-7.691 4.335,-10.465 2.774,-2.775 6.541,-4.335 10.465,-4.335 3.924,0 7.691,1.56 10.465,4.335 2.775,2.774 4.335,6.541 4.335,10.465 0,3.924 -1.56,7.691 -4.335,10.465 -2.774,2.775 -6.541,4.335 -10.465,4.335 -3.924,0 -7.691,-1.56 -10.465,-4.335 -2.775,-2.774 -4.335,-6.541 -4.335,-10.465"
           style="fill:#ffffff" />
        <path
           id="path_8"
           d="m 205.662,191.9 m -14.8,0 c 0,-3.924 1.56,-7.691 4.335,-10.465 2.774,-2.775 6.541,-4.335 10.465,-4.335 3.924,0 7.691,1.56 10.465,4.335 2.775,2.774 4.335,6.541 4.335,10.465 0,3.924 -1.56,7.691 -4.335,10.465 -2.774,2.775 -6.541,4.335 -10.465,4.335 -3.924,0 -7.691,-1.56 -10.465,-4.335 -2.775,-2.774 -4.335,-6.541 -4.335,-10.465"
           style="fill:#ffffff" />
      </g>
    </g>
  </g>
  <g
     aria-label="Bimba"
     style="font-style:normal;font-variant:normal;font-weight:normal;font-stretch:normal;font-size:56px;line-height:1.25;font-family:Railway;-inkscape-font-specification:Railway;letter-spacing:0px;word-spacing:0px;display:none;fill:#ffffff;fill-opacity:1;stroke:none"
     id="text1004"
     transform="translate(-8.114,-14.86441)">
    <path
       d="m 116.40217,69.760412 c 0,0.896 -0.256,1.792 -0.704,2.624 -0.448,0.832 -1.024,1.536 -1.792,2.176 -0.768,0.64 -1.6,1.088 -2.624,1.472 -1.024,0.384 -2.048,0.512 -3.2,0.512 h -7.936 v -14.848 h 3.392 4.416 c 1.152,0 2.24,0.256 3.264,0.64 1.024,0.448 1.92,1.024 2.688,1.728 0.768,0.768 1.344,1.6 1.792,2.56 0.448,1.024 0.704,2.048 0.704,3.136 z m -4.672,-19.968 c 0,0.768 -0.192,1.536 -0.512,2.176 -0.384,0.64 -0.832,1.216 -1.408,1.728 -0.576,0.512 -1.216,0.896 -1.984,1.152 -0.768,0.32 -1.536,0.448 -2.368,0.448 h -5.312 v -10.752 h 5.12 c 0.832,0 1.664,0.192 2.432,0.448 0.768,0.256 1.472,0.64 2.112,1.088 0.576,0.512 1.024,1.024 1.408,1.664 0.32,0.64 0.512,1.344 0.512,2.048 z m 11.584,19.904 c 0,-2.688 -0.768,-5.184 -2.24,-7.424 -1.536,-2.24 -3.456,-3.968 -5.824,-5.248 0.96,-0.96 1.728,-2.048 2.304,-3.328 0.512,-1.216 0.832,-2.496 0.832,-3.904 0,-1.6 -0.384,-3.136 -1.024,-4.544 -0.704,-1.408 -1.664,-2.624 -2.816,-3.712 -1.216,-1.024 -2.624,-1.856 -4.224,-2.496 -1.6,-0.576 -3.264,-0.896 -5.056,-0.896 H 93.746168 v 44.8 h 14.272002 c 2.048,0 4.032,-0.32 5.888,-1.024 1.856,-0.704 3.456,-1.664 4.864,-2.88 1.408,-1.152 2.496,-2.56 3.328,-4.224 0.768,-1.6 1.216,-3.328 1.216,-5.12 z"
       style="font-size:64px"
       id="path4709" />
    <path
       d="m 134.45016,82.944412 v -30.336 h -6.336 v 30.336 z m 1.344,-38.272 -4.48,-4.544 -4.48,4.544 4.48,4.48 z"
       style="font-size:64px"
       id="path4711" />
    <path
       d="m 188.59409,82.944412 v -18.048 c 0,-1.664 -0.384,-3.328 -1.024,-4.864 -0.704,-1.536 -1.6,-2.88 -2.752,-4.032 -1.152,-1.152 -2.496,-2.048 -4.032,-2.752 -1.536,-0.64 -3.072,-1.024 -4.736,-1.024 -2.048,0 -4.032,0.448 -5.888,1.216 -1.92,0.832 -3.712,1.984 -5.376,3.392 -1.216,-1.344 -2.624,-2.432 -4.224,-3.328 -1.664,-0.832 -3.392,-1.28 -5.184,-1.28 -1.472,0 -2.88,0.192 -4.16,0.576 -1.344,0.384 -2.56,0.96 -3.712,1.6 v -1.856 h -6.592 v 30.4 h 6.528 v -21.504 c 0.768,-0.768 1.792,-1.408 3.008,-1.92 1.216,-0.448 2.56,-0.704 4.032,-0.704 0.96,0 1.856,0.192 2.752,0.512 0.832,0.32 1.6,0.768 2.24,1.28 0.64,0.576 1.088,1.216 1.472,1.984 0.384,0.768 0.576,1.536 0.576,2.304 v 18.048 h 6.4 v -20.096 c 0.96,-1.216 2.048,-2.176 3.328,-2.944 1.216,-0.704 2.496,-1.088 3.904,-1.088 0.96,0 1.856,0.192 2.752,0.512 0.832,0.32 1.6,0.768 2.24,1.28 0.64,0.576 1.088,1.216 1.472,1.984 0.384,0.768 0.576,1.536 0.576,2.304 v 18.048 z"
       style="font-size:64px"
       id="path4713" />
    <path
       d="m 217.90603,67.776412 c 0,1.28 -0.256,2.496 -0.768,3.648 -0.512,1.152 -1.152,2.176 -1.984,3.008 -0.896,0.896 -1.856,1.536 -2.944,2.048 -1.152,0.512 -2.304,0.704 -3.584,0.704 -1.536,0 -3.008,-0.256 -4.352,-0.768 -1.408,-0.512 -2.56,-1.216 -3.52,-2.112 v -12.736 c 0.96,-0.896 2.112,-1.6 3.456,-2.112 1.344,-0.512 2.816,-0.832 4.416,-0.832 1.28,0 2.432,0.256 3.584,0.768 1.088,0.512 2.048,1.152 2.944,1.984 0.832,0.832 1.472,1.792 1.984,2.88 0.512,1.152 0.768,2.304 0.768,3.52 z m 6.4,0 c 0,-2.112 -0.448,-4.096 -1.28,-6.016 -0.832,-1.856 -1.92,-3.52 -3.328,-4.928 -1.408,-1.408 -3.072,-2.496 -4.992,-3.328 -1.92,-0.832 -3.904,-1.28 -6.016,-1.28 -1.472,0 -2.88,0.192 -4.224,0.576 -1.344,0.384 -2.56,0.96 -3.712,1.6 v -16.256 h -6.4 v 44.8 h 6.4 v -1.472 c 1.152,0.704 2.368,1.216 3.712,1.6 1.28,0.384 2.688,0.512 4.16,0.512 2.112,0 4.096,-0.384 6.016,-1.216 1.92,-0.832 3.584,-1.984 4.992,-3.392 1.408,-1.408 2.56,-3.136 3.392,-5.056 0.832,-1.92 1.28,-3.968 1.28,-6.144 z"
       style="font-size:64px"
       id="path4715" />
    <path
       d="m 246.57798,76.160412 c -0.896,0.512 -1.856,0.96 -2.88,1.28 -1.024,0.32 -2.048,0.448 -2.944,0.448 -1.664,0 -3.136,-0.192 -4.288,-0.576 -1.152,-0.384 -1.728,-1.216 -1.728,-2.624 0,-0.896 0.256,-1.664 0.896,-2.304 0.64,-0.576 1.472,-1.024 2.56,-1.344 1.024,-0.32 2.304,-0.576 3.776,-0.704 1.408,-0.128 2.944,-0.192 4.608,-0.192 z m 6.4,6.784 v -18.88 c 0,-2.816 -0.448,-5.12 -1.344,-6.848 -0.896,-1.728 -1.92,-3.072 -3.2,-3.968 -1.28,-0.896 -2.624,-1.472 -4.032,-1.728 -1.408,-0.256 -2.688,-0.448 -3.776,-0.448 -1.536,0 -3.072,0.256 -4.672,0.768 -1.664,0.512 -3.072,1.088 -4.224,1.856 l -2.432,8.064 h 0.64 c 1.792,-1.6 3.52,-2.688 5.184,-3.328 1.664,-0.64 3.392,-0.96 5.248,-0.96 1.216,0 2.24,0.192 3.072,0.448 0.768,0.32 1.408,0.768 1.92,1.344 0.448,0.576 0.768,1.28 0.96,2.176 0.128,0.896 0.256,1.856 0.256,2.944 -3.328,0 -6.144,0.32 -8.448,0.832 -2.304,0.576 -4.16,1.344 -5.568,2.24 -1.408,0.96 -2.432,2.048 -3.072,3.328 -0.64,1.28 -0.896,2.624 -0.896,4.032 0,1.28 0.256,2.432 0.832,3.456 0.512,1.024 1.28,1.984 2.24,2.752 0.896,0.832 1.984,1.472 3.264,1.92 1.28,0.448 2.624,0.64 4.096,0.64 1.152,0 2.368,-0.192 3.776,-0.576 1.408,-0.384 2.624,-0.896 3.776,-1.664 v 1.6 z"
       style="font-size:64px"
       id="path4717" />
  </g>
</svg>
