<?xml version="1.0" encoding="UTF-8"?>
<svg height="128px" viewBox="0 0 128 128" width="128px" xmlns="http://www.w3.org/2000/svg" xmlns:xlink="http://www.w3.org/1999/xlink">
    <linearGradient id="a" gradientUnits="userSpaceOnUse" x1="7.999702" x2="120.383827" y1="116.000488" y2="116">
        <stop offset="0" stop-color="#9a9996"/>
        <stop offset="0.0357143" stop-color="#deddda"/>
        <stop offset="0.0713653" stop-color="#77767b"/>
        <stop offset="0.928571" stop-color="#c0bfbc"/>
        <stop offset="0.964286" stop-color="#deddda"/>
        <stop offset="1" stop-color="#9a9996"/>
    </linearGradient>
    <linearGradient id="b" gradientUnits="userSpaceOnUse">
        <stop offset="0" stop-color="#deddda"/>
        <stop offset="0.5" stop-color="#f6f5f4"/>
        <stop offset="1" stop-color="#c0bfbc"/>
    </linearGradient>
    <linearGradient id="c" x1="64" x2="64" xlink:href="#b" y1="28" y2="112"/>
    <linearGradient id="d" gradientUnits="userSpaceOnUse" x1="48" x2="48" y1="40" y2="72">
        <stop offset="0" stop-color="#3d3846"/>
        <stop offset="0.5" stop-color="#5e5c64"/>
        <stop offset="0.75" stop-color="#3d3846"/>
        <stop offset="1" stop-color="#241f31"/>
    </linearGradient>
    <linearGradient id="e" x1="64" x2="64" xlink:href="#b" y1="27.999695" y2="112"/>
    <linearGradient id="f" gradientUnits="userSpaceOnUse" x1="64" x2="64" y1="96" y2="84">
        <stop offset="0" stop-color="#ed333b"/>
        <stop offset="1" stop-color="#f66151"/>
    </linearGradient>
    <path d="m 120 104 v 4 c 0 4.433594 -3.566406 8 -8 8 h -96 c -4.433594 0 -8 -3.566406 -8 -8 v -4 z m 0 0" fill="url(#a)"/>
    <path d="m 16 28 h 64 c 4.433594 0 6.113281 3.988281 8 8 l 32 68 c 1.886719 4.011719 -3.566406 8 -8 8 h -96 c -4.433594 0 -8 -3.566406 -8 -8 v -68 c 0 -4.433594 3.566406 -8 8 -8 z m 0 0" fill="url(#c)"/>
    <path d="m 16 28 c -4.433594 0 -8 3.566406 -8 8 v 2 c 0 -4.433594 3.566406 -8 8 -8 h 64 c 4.433594 0 6.113281 3.988281 8 8 l 32 68 c 0.105469 0.222656 0.175781 0.441406 0.238281 0.660156 c 0.226563 -0.855468 0.1875 -1.757812 -0.238281 -2.660156 l -32 -68 c -1.886719 -4.011719 -3.566406 -8 -8 -8 z m 0 0" fill="#ffffff" fill-opacity="0.2"/>
    <path d="m 8 102 v 2 c 0 4.433594 3.566406 8 8 8 h 96 c 4.1875 0 9.28125 -3.5625 8.238281 -7.339844 c -0.773437 2.941406 -4.804687 5.339844 -8.238281 5.339844 h -96 c -4.433594 0 -8 -3.566406 -8 -8 z m 0 0" fill-opacity="0.2"/>
    <path d="m 48 108 l 2 8 h -34 c -4.433594 0 -8 -3.566406 -8 -8 z m 0 0" fill="#5e5c64"/>
    <path d="m 14 106 h 28 c 1.105469 0 2 0.894531 2 2 v 4 c 0 1.105469 -0.894531 2 -2 2 h -28 c -1.105469 0 -2 -0.894531 -2 -2 v -4 c 0 -1.105469 0.894531 -2 2 -2 z m 0 0" fill="#77767b"/>
    <path d="m 14 104 h 28 c 1.105469 0 2 0.894531 2 2 v 4 c 0 1.105469 -0.894531 2 -2 2 h -28 c -1.105469 0 -2 -0.894531 -2 -2 v -4 c 0 -1.105469 0.894531 -2 2 -2 z m 0 0" fill="#9a9996"/>
    <path d="m 40 108 c 0 6.628906 -5.371094 12 -12 12 s -12 -5.371094 -12 -12 s 5.371094 -12 12 -12 s 12 5.371094 12 12 z m 0 0" fill="#241f31"/>
    <path d="m 40 106 c 0 6.628906 -5.371094 12 -12 12 s -12 -5.371094 -12 -12 s 5.371094 -12 12 -12 s 12 5.371094 12 12 z m 0 0" fill="#3d3846"/>
    <path d="m 37 106 c 0 4.96875 -4.03125 9 -9 9 s -9 -4.03125 -9 -9 s 4.03125 -9 9 -9 s 9 4.03125 9 9 z m 0 0" fill="#5e5c64"/>
    <path d="m 39.941406 105.824219 c -0.433594 6.28125 -5.644531 11.160156 -11.941406 11.175781 c -6.226562 -0.015625 -11.410156 -4.792969 -11.925781 -11 c -0.039063 0.332031 -0.0625 0.664062 -0.074219 1 c 0 6.628906 5.371094 12 12 12 s 12 -5.371094 12 -12 c 0 -0.394531 -0.019531 -0.785156 -0.058594 -1.175781 z m 0 0" fill="#ffffff" fill-opacity="0.101961"/>
    <path d="m 8 106 v 2 c 0 0.691406 0.097656 1.359375 0.257812 2 h 40.242188 l -0.5 -2 z m 0 0" fill-opacity="0.2"/>
    <path d="m 8 40 h 68 c 2.453125 0 4.691406 1.386719 5.789062 3.578125 l 12.421876 24.84375 c 0.820312 1.644531 -0.375 3.578125 -2.210938 3.578125 h -84 z m 0 0" fill="url(#d)"/>
    <path d="m 8 92 h 40 v 16 h -40 z m 0 0" fill="url(#e)"/>
    <path d="m 8 84 v 12 h 108.234375 l -5.648437 -12 z m 0 0" fill="url(#f)"/>
    <path d="m 8 40 v 2 h 68 c 2.453125 0 4.691406 1.386719 5.789062 3.578125 l 12.421876 24.84375 c 0.015624 0.03125 0.019531 0.066406 0.035156 0.097656 c 0.285156 -0.636719 0.320312 -1.390625 -0.035156 -2.097656 l -12.421876 -24.84375 c -1.097656 -2.191406 -3.335937 -3.578125 -5.789062 -3.578125 z m 0 0" fill="#241f31"/>
</svg>
