<?xml version="1.0"?>
<svg xmlns="http://www.w3.org/2000/svg" width="168" height="32" viewBox="0 0 44.45 8.467">
  <defs>
    <filter id="a" width="2.322" height="2.322" x="-.661" y="-.661" color-interpolation-filters="sRGB">
      <feGaussianBlur stdDeviation=".16"/>
    </filter>
  </defs>
  <path fill="#fff" d="M24.608 1.68a.435.435 0 0 0-.305.102c-.068.062-.102.154-.102.278 0 .123.034.219.102.287a.435.435 0 0 0 .305.101c.13 0 .228-.034.296-.101a.37.37 0 0 0 .11-.287c0-.124-.036-.216-.11-.278-.068-.068-.166-.102-.296-.102zm2.248.482c-.093 0-.164.024-.213.074-.05.043-.074.114-.074.212v1.156h-.685a.284.284 0 0 0-.194.065.186.186 0 0 0-.074.158.22.22 0 0 0 .074.175c.05.037.114.056.194.056h.685v2.534c0 .34.055.626.166.86.112.229.278.404.5.528.222.123.5.185.833.185.098 0 .206-.012.323-.037.117-.018.21-.04.278-.065a.143.143 0 0 0 .11-.092.328.328 0 0 0 .038-.148c0-.08-.019-.139-.056-.176a.14.14 0 0 0-.11-.055.66.66 0 0 0-.213.046c-.08.024-.182.037-.306.037-.357 0-.613-.099-.768-.296-.154-.198-.23-.484-.23-.86V4.057h1.248c.086 0 .151-.019.194-.056a.237.237 0 0 0 .065-.175.196.196 0 0 0-.065-.158c-.043-.043-.108-.065-.194-.065h-1.249V2.448c0-.098-.025-.17-.074-.212a.274.274 0 0 0-.203-.074zM8.863 3.512a1.85 1.85 0 0 0-1.036.305 1.475 1.475 0 0 0-.5.602v-.583c0-.099-.024-.173-.074-.222-.043-.05-.108-.074-.194-.074-.093 0-.163.024-.212.074-.05.049-.075.123-.075.222V7.86c0 .092.025.163.075.212.049.05.12.075.212.075.099 0 .17-.025.213-.075.05-.049.074-.12.074-.212V5.464c0-.42.12-.753.36-1 .24-.246.58-.39 1.018-.434l.13-.01a.36.36 0 0 0 .213-.082c.043-.05.061-.118.055-.204 0-.08-.025-.139-.074-.176a.262.262 0 0 0-.185-.046zm2.784.01c-.253 0-.514.036-.786.11a3.382 3.382 0 0 0-.786.315.274.274 0 0 0-.13.12.278.278 0 0 0-.027.158.41.41 0 0 0 .055.129.22.22 0 0 0 .12.074c.056.012.117 0 .185-.037a3.39 3.39 0 0 1 .694-.296c.222-.062.45-.093.685-.093.363 0 .629.096.795.287.167.185.25.484.25.897v.334h-.287c-.69 0-1.233.04-1.628.12-.394.073-.675.206-.841.397-.167.191-.25.454-.25.787 0 .253.067.48.203.684.142.204.33.364.564.481.24.117.512.176.814.176.26 0 .494-.046.704-.139s.385-.225.527-.398c.083-.101.15-.216.203-.34v.572c0 .092.025.163.074.212.05.05.117.075.204.075s.15-.025.194-.075a.313.313 0 0 0 .065-.212V5.214c0-.388-.059-.706-.176-.953a1.125 1.125 0 0 0-.527-.555c-.235-.123-.534-.185-.898-.185zm5.19 0c-.388 0-.734.095-1.036.286a1.483 1.483 0 0 0-.527.597v-.57c0-.098-.025-.172-.075-.221-.043-.05-.107-.074-.194-.074-.092 0-.163.024-.212.074-.05.049-.075.123-.075.222V7.86c0 .092.025.163.075.212.05.05.12.075.212.075.185 0 .278-.096.278-.287V5.529c0-.463.132-.83.398-1.101.27-.278.629-.416 1.073-.416.388 0 .672.104.851.314.179.203.268.53.268.98V7.86c0 .092.025.163.074.212.05.05.12.075.213.075a.274.274 0 0 0 .203-.075c.05-.049.075-.12.075-.212v-2.6c0-.388-.059-.712-.176-.97a1.16 1.16 0 0 0-.537-.574c-.234-.13-.53-.195-.888-.195zm4.634 0a2.23 2.23 0 0 0-.887.166 1.34 1.34 0 0 0-.593.453 1.195 1.195 0 0 0-.203.694c0 .308.092.561.277.758.185.192.472.33.86.416l.805.185c.284.068.488.158.611.27.13.104.194.255.194.452a.67.67 0 0 1-.296.574c-.197.142-.484.212-.86.212-.228 0-.456-.03-.684-.092a2.414 2.414 0 0 1-.704-.333.232.232 0 0 0-.157-.046.218.218 0 0 0-.13.065.251.251 0 0 0-.064.12.402.402 0 0 0 .01.148c.018.043.052.08.101.111.247.179.505.305.777.38.277.073.555.11.832.11.53 0 .95-.114 1.259-.342a1.12 1.12 0 0 0 .471-.944c0-.308-.098-.552-.296-.73-.197-.186-.496-.325-.897-.417l-.805-.185c-.259-.062-.45-.151-.574-.268a.625.625 0 0 1-.175-.463.72.72 0 0 1 .287-.6c.197-.149.474-.223.832-.223.204 0 .404.034.602.102.197.061.385.16.564.296a.286.286 0 0 0 .157.055c.05 0 .093-.015.13-.046a.222.222 0 0 0 .074-.11.205.205 0 0 0 0-.15.232.232 0 0 0-.093-.128c-.185-.167-.4-.29-.647-.37s-.506-.12-.778-.12zm9.741 0a2.13 2.13 0 0 0-.85.166 1.771 1.771 0 0 0-.658.471 2.175 2.175 0 0 0-.416.731 3.064 3.064 0 0 0-.139.953c0 .475.084.885.25 1.23.173.346.414.614.722.805.308.191.672.287 1.091.287.321 0 .608-.052.86-.157a1.83 1.83 0 0 0 .648-.472c.185-.204.324-.447.416-.73.099-.284.149-.605.149-.963 0-.469-.087-.876-.26-1.221-.166-.352-.404-.623-.712-.814s-.675-.287-1.1-.287zm9.963 0c-.333 0-.629.055-.888.166a1.34 1.34 0 0 0-.592.453 1.195 1.195 0 0 0-.204.694c0 .308.093.561.278.758.185.192.472.33.86.416l.806.185c.283.068.486.158.61.27.13.104.194.255.194.452a.67.67 0 0 1-.296.574c-.197.142-.484.212-.86.212-.229 0-.456-.03-.685-.092a2.414 2.414 0 0 1-.703-.333.232.232 0 0 0-.157-.046.218.218 0 0 0-.13.065.251.251 0 0 0-.064.12.402.402 0 0 0 .009.148c.018.043.052.08.102.111.246.179.505.305.776.38.278.073.556.11.833.11.53 0 .95-.114 1.258-.342.315-.235.472-.55.472-.944 0-.308-.099-.552-.296-.73-.197-.186-.496-.325-.897-.417l-.805-.185c-.26-.062-.45-.151-.573-.268a.626.626 0 0 1-.177-.463.72.72 0 0 1 .287-.6c.198-.149.475-.223.833-.223.203 0 .404.034.601.102.198.061.386.16.565.296a.286.286 0 0 0 .157.055.199.199 0 0 0 .13-.046.222.222 0 0 0 .073-.11.205.205 0 0 0 0-.15.232.232 0 0 0-.092-.128c-.185-.167-.401-.29-.648-.37s-.506-.12-.777-.12zm-6.42.018c-.092 0-.163.024-.213.074-.049.049-.074.123-.074.222v2.59c0 .382.059.703.176.962.117.26.293.453.528.583.24.129.54.194.897.194.376 0 .709-.098.999-.296.214-.145.38-.34.5-.584v.575c0 .092.024.163.073.212.05.05.118.075.204.075.179 0 .268-.096.268-.287V3.836c0-.099-.024-.173-.074-.222a.275.275 0 0 0-.203-.074c-.093 0-.164.024-.213.074-.05.05-.074.123-.074.222v2.322c0 .456-.13.826-.389 1.11-.259.277-.598.416-1.017.416-.383 0-.663-.105-.842-.314-.179-.216-.268-.54-.268-.972V3.836c0-.099-.025-.173-.074-.222a.275.275 0 0 0-.204-.074zm-10.148.028c-.092 0-.163.024-.213.074-.049.049-.074.123-.074.221v3.96c0 .092.025.166.074.222.05.055.12.083.213.083s.16-.028.203-.083a.323.323 0 0 0 .075-.222v-3.96c0-.098-.025-.172-.075-.221a.274.274 0 0 0-.203-.074zm6.605.434c.463 0 .826.16 1.091.481.272.321.408.774.408 1.36 0 .389-.062.722-.185 1a1.37 1.37 0 0 1-.519.638 1.445 1.445 0 0 1-.795.212c-.45 0-.81-.16-1.082-.48s-.407-.778-.407-1.37c0-.388.058-.718.175-.99a1.39 1.39 0 0 1 .518-.628 1.43 1.43 0 0 1 .796-.223zM12.424 5.936h.278v.305a1.6 1.6 0 0 1-.176.759 1.37 1.37 0 0 1-.481.527 1.283 1.283 0 0 1-.694.185c-.327 0-.586-.087-.777-.26s-.287-.397-.287-.675c0-.222.062-.394.185-.517.124-.124.34-.207.648-.25.314-.05.749-.074 1.304-.074z"/>
  <g stroke-linecap="round" stroke-linejoin="round" color="#000">
    <path fill="#fff" d="M7.673 1.587H.793" style="-inkscape-stroke:none"/>
    <path fill="#286caa" d="m3.849 1.288.022.023c.159.158.266.36.31.576h3.492a.3.3 0 1 0 0-.6zm-3.07.003a.3.3 0 0 0-.286.298.3.3 0 0 0 .3.298h2.24l-.554-.553a.137.137 0 0 0-.098-.041H.793a.546.546 0 0 1-.014-.002z" style="-inkscape-stroke:none"/>
  </g>
  <g fill="#fff" stroke-linecap="round" stroke-linejoin="round" color="#000">
    <path fill-opacity=".23" d="M.794 1.487a.1.1 0 0 0-.1.102.1.1 0 0 0 .1.099h2.04l-.202-.201zm3.22 0c.043.063.078.13.107.2h3.552a.1.1 0 0 0 .1-.098.1.1 0 0 0-.1-.102H6.136z" style="-inkscape-stroke:none"/>
    <path d="M7.673 1.587H.794" style="-inkscape-stroke:none"/>
  </g>
  <g stroke-linecap="round" stroke-linejoin="round" color="#000">
    <path fill="#ffbf00" d="M5.027 2.082a.834.834 0 0 0-.83.828v5.291a.3.3 0 0 0 .301.3.3.3 0 0 0 .3-.3v-5.29c0-.131.1-.23.23-.23h2.646a.3.3 0 0 0 .299-.3.3.3 0 0 0-.3-.299z" style="-inkscape-stroke:none"/>
    <path fill="#fffdfd" fill-opacity=".232" d="M5.027 2.281a.63.63 0 0 0-.629.63V8.2a.1.1 0 0 0 .1.102.1.1 0 0 0 .1-.102V2.91c0-.24.191-.43.43-.43h2.646a.1.1 0 0 0 .1-.1.1.1 0 0 0-.1-.1z" style="-inkscape-stroke:none"/>
    <path fill="#9c133a" d="M.793.494a.3.3 0 0 0-.299.299.3.3 0 0 0 .299.3h1.588a.34.34 0 0 1 .24.1l.684.684c.063.064.1.15.1.24v6.084a.3.3 0 0 0 .3.301.3.3 0 0 0 .299-.3V2.116a.94.94 0 0 0-.275-.664L3.045.77A.94.94 0 0 0 2.38.494z" style="-inkscape-stroke:none"/>
  </g>
  <path fill="gray" stroke="#000" stroke-linecap="square" stroke-linejoin="bevel" stroke-width=".128" d="M5.955 3.11a.338.338 0 0 1-.339-.34V1.417a.338.338 0 1 1 .678 0V2.77a.338.338 0 0 1-.34.338z" filter="url(#a)" opacity=".533"/>
  <path fill="#fff" stroke="#0d1d32" stroke-linecap="square" stroke-linejoin="bevel" stroke-width=".2" d="M5.955.977c.187 0 .339.151.339.339v1.355a.338.338 0 1 1-.678 0V1.316c0-.188.151-.339.339-.339z"/>
  <path fill="#fffdfd" fill-opacity=".232" d="M.793.693a.1.1 0 0 0-.1.1.1.1 0 0 0 .1.102h1.588c.143 0 .28.055.38.156l.686.685a.537.537 0 0 1 .157.381v6.084a.1.1 0 0 0 .101.102.1.1 0 0 0 .1-.102V2.117a.742.742 0 0 0-.217-.523L2.904.91a.742.742 0 0 0-.523-.217z" color="#000" style="-inkscape-stroke:none"/>
  <path fill="gray" stroke="#000" stroke-linecap="square" stroke-linejoin="bevel" stroke-width=".128" d="M5.119 4.862a.338.338 0 0 1-.339.339H3.425a.338.338 0 1 1 0-.678H4.78c.188 0 .339.151.339.34z" filter="url(#a)" opacity=".533"/>
  <path fill="#fff" stroke="#0d1d32" stroke-linecap="square" stroke-linejoin="bevel" stroke-width=".2" d="M5.119 4.763a.338.338 0 0 1-.339.338H3.425a.338.338 0 1 1 0-.677H4.78c.188 0 .339.15.339.339z"/>
</svg>
