<?xml version="1.0" encoding="UTF-8"?>
<!-- Created with Inkscape (http://www.inkscape.org/) -->
<svg xmlns="http://www.w3.org/2000/svg" width="168" height="32" version="1.1" viewBox="0 0 44.45 8.4667">
    <defs>
        <filter id="filter29" x="-.66003" y="-.66003" width="2.3201" height="2.3201" color-interpolation-filters="sRGB">
            <feGaussianBlur stdDeviation="0.15965272"/>
        </filter>
    </defs>
    <path d="m24.608 1.6805c-0.12951 0-0.2314 0.033965-0.30541 0.1018-0.067838 0.061671-0.1018 0.15416-0.1018 0.2775 0 0.12334 0.033965 0.21897 0.1018 0.2868 0.074004 0.067838 0.1759 0.1018 0.30541 0.1018 0.12951 0 0.22775-0.033965 0.29559-0.1018 0.074005-0.067838 0.1111-0.16346 0.1111-0.2868 0-0.12334-0.0371-0.21583-0.1111-0.2775-0.067837-0.067838-0.16608-0.1018-0.29559-0.1018zm2.2479 0.48111c-0.092506 0-0.16357 0.024561-0.21291 0.073897-0.049336 0.043169-0.073897 0.11423-0.073897 0.21291v1.156h-0.68471c-0.080172 0-0.14497 0.021426-0.1943 0.064596-0.049337 0.037002-0.073898 0.089775-0.073898 0.15761 0 0.074005 0.024561 0.13253 0.073898 0.1757 0.049336 0.037002 0.11413 0.055294 0.1943 0.055294h0.68471v2.5347c0 0.33919 0.055391 0.62606 0.1664 0.86041 0.11101 0.22818 0.2777 0.40376 0.49971 0.5271 0.22202 0.12334 0.49949 0.185 0.83251 0.185 0.098674 0 0.20632-0.012022 0.3235-0.03669 0.11717-0.018501 0.20966-0.040444 0.2775-0.065112 0.055504-0.012334 0.092603-0.043164 0.1111-0.092501 0.024668-0.049336 0.037207-0.098458 0.037207-0.14779 0-0.080172-0.018808-0.1387-0.055811-0.1757-0.030835-0.037002-0.067935-0.055294-0.1111-0.055294-0.055504 0-0.12605 0.015157-0.21239 0.045992-0.080172 0.024668-0.18207 0.037207-0.30541 0.037207-0.35769 0-0.61374-0.09876-0.76791-0.29611-0.15418-0.19735-0.23099-0.48422-0.23099-0.86041v-2.4608h1.2485c0.086339 0 0.15113-0.018291 0.1943-0.055294 0.043169-0.04317 0.064595-0.1017 0.064595-0.1757 0-0.067838-0.021426-0.12061-0.064595-0.15761-0.04317-0.04317-0.10796-0.064596-0.1943-0.064596h-1.2485v-1.156c0-0.098673-0.025078-0.16974-0.074415-0.21291-0.049336-0.049337-0.11675-0.073897-0.20309-0.073897zm-17.993 1.3503c-0.40086 0.0061671-0.74626 0.10806-1.0361 0.30541-0.2176 0.15137-0.38319 0.35269-0.49919 0.60203v-0.58343c0-0.098673-0.025078-0.17287-0.074414-0.22221-0.043169-0.049336-0.10796-0.073897-0.1943-0.073897-0.092506 0-0.16305 0.024561-0.21239 0.073897-0.049336 0.049336-0.074414 0.12354-0.074414 0.22221v4.024c0 0.092506 0.025078 0.16305 0.074414 0.21239 0.049337 0.049336 0.11988 0.074414 0.21239 0.074414 0.098673 0 0.16974-0.025078 0.21291-0.074414 0.049336-0.049337 0.073897-0.11988 0.073897-0.21239v-2.3962c0-0.41936 0.12019-0.75222 0.3607-0.99891 0.24052-0.24668 0.58016-0.39143 1.018-0.4346l0.12919-0.0093018c0.098673-0.012334 0.16974-0.04003 0.21291-0.083199 0.04317-0.049336 0.061461-0.11727 0.055294-0.20361 0-0.080172-0.024561-0.1387-0.073897-0.1757-0.049336-0.037002-0.111-0.052676-0.185-0.046509zm2.7843 0.0093018c-0.25285 0-0.51465 0.0371-0.786 0.1111-0.26518 0.067838-0.5275 0.17287-0.78652 0.31471-0.06167 0.030835-0.10452 0.070553-0.12919 0.11989-0.024668 0.049337-0.034072 0.10211-0.027905 0.15761 0.012334 0.049337 0.030626 0.092189 0.055294 0.12919 0.030835 0.037002 0.071069 0.061563 0.12041 0.073897 0.055503 0.012334 0.11716 3.122e-4 0.185-0.03669 0.24668-0.13568 0.47817-0.23444 0.69402-0.29611 0.22201-0.061671 0.44985-0.092501 0.6842-0.092501 0.36386 0 0.62931 0.095625 0.79582 0.2868 0.16651 0.18501 0.2496 0.48391 0.2496 0.8971v0.33331h-0.2868c-0.69071 0-1.2331 0.039718-1.6278 0.11989-0.39469 0.074005-0.6753 0.20673-0.84181 0.39791-0.16651 0.19118-0.25011 0.45349-0.25011 0.78652 0 0.25285 0.06793 0.48068 0.20361 0.6842 0.14184 0.20351 0.32996 0.36393 0.56431 0.48111 0.24052 0.11717 0.51172 0.1757 0.8139 0.1757 0.25902 0 0.49364-0.045987 0.70332-0.13849s0.38526-0.22523 0.5271-0.39791c0.083418-0.10155 0.15005-0.21605 0.2036-0.34106v0.57257c0 0.092506 0.024561 0.16305 0.073897 0.21239 0.049337 0.049336 0.11727 0.074414 0.2036 0.074414s0.15113-0.025078 0.1943-0.074414c0.043169-0.049337 0.064595-0.11988 0.064595-0.21239v-2.6458c0-0.38853-0.058525-0.70623-0.1757-0.95291-0.11101-0.24668-0.28658-0.43166-0.5271-0.555-0.23435-0.12334-0.53376-0.185-0.89762-0.185zm5.1899 0c-0.38852 0-0.73393 0.095625-1.0361 0.2868-0.22656 0.14632-0.40169 0.34578-0.5271 0.59686v-0.56896c0-0.098673-0.025077-0.17287-0.074414-0.22221-0.043169-0.049336-0.10796-0.073897-0.1943-0.073897-0.092506 0-0.16305 0.024561-0.21239 0.073897-0.049337 0.049336-0.074415 0.12354-0.074415 0.22221v4.024c0 0.092506 0.025078 0.16305 0.074415 0.21239 0.049336 0.049336 0.11988 0.074414 0.21239 0.074414 0.18501 0 0.2775-0.095625 0.2775-0.2868v-2.3311c0-0.46253 0.13272-0.82987 0.39791-1.1012 0.27135-0.27752 0.62929-0.416 1.0733-0.416 0.38852 0 0.67227 0.10451 0.85111 0.31419 0.17884 0.20351 0.2682 0.53062 0.2682 0.98082v2.5533c0 0.092506 0.02456 0.16305 0.073897 0.21239 0.049336 0.049336 0.1204 0.074414 0.21291 0.074414 0.086339 0 0.15375-0.025078 0.20309-0.074414 0.049337-0.049337 0.074414-0.11988 0.074414-0.21239v-2.5998c0-0.38853-0.058525-0.71198-0.1757-0.971-0.11717-0.25902-0.2964-0.45027-0.53692-0.57361-0.23435-0.12951-0.53011-0.1943-0.8878-0.1943zm4.6343 0c-0.33302 0-0.62878 0.055391-0.8878 0.1664-0.25285 0.10484-0.45037 0.25586-0.59221 0.4532-0.13568 0.19735-0.20361 0.42883-0.20361 0.69401 0 0.30835 0.092491 0.56126 0.2775 0.75861 0.18501 0.19118 0.47189 0.32966 0.86041 0.416l0.8046 0.185c0.28368 0.067838 0.48747 0.15771 0.61082 0.26872 0.12951 0.10484 0.1943 0.25586 0.1943 0.4532 0 0.24052-0.098759 0.43177-0.29611 0.57361-0.19735 0.14184-0.48422 0.21239-0.86041 0.21239-0.22818 0-0.45602-0.03083-0.6842-0.092501-0.22818-0.061671-0.4628-0.17245-0.70332-0.3328-0.055504-0.037002-0.10776-0.052676-0.1571-0.046509-0.049336 0.0061671-0.092705 0.02811-0.12971 0.065112-0.030835 0.030835-0.052261 0.070553-0.064595 0.11989-0.006167 0.049337-0.003033 0.098975 0.009302 0.14831 0.018501 0.04317 0.052466 0.080269 0.1018 0.1111 0.24668 0.17884 0.50535 0.3053 0.7767 0.3793 0.27752 0.074005 0.55499 0.11059 0.83251 0.11059 0.53037 0 0.94997-0.11392 1.2583-0.3421 0.31452-0.23435 0.47181-0.54892 0.47181-0.94361 0-0.30835-0.09876-0.55186-0.29611-0.7307-0.19735-0.18501-0.49624-0.32401-0.8971-0.41651l-0.80512-0.185c-0.25902-0.061671-0.45027-0.15103-0.57361-0.2682-0.11717-0.11717-0.1757-0.27132-0.1757-0.4625 0-0.25285 0.095625-0.45299 0.2868-0.601 0.19735-0.14801 0.47482-0.22221 0.83251-0.22221 0.20351 0 0.40417 0.033965 0.60151 0.1018 0.19735 0.061671 0.38546 0.16043 0.56431 0.29611 0.055504 0.037002 0.10776 0.055294 0.1571 0.055294 0.049336 0 0.092705-0.015157 0.12971-0.045992 0.037003-0.030835 0.061564-0.067935 0.073898-0.1111 0.018501-0.049337 0.018501-0.098975 0-0.14831-0.012334-0.049336-0.043165-0.092189-0.092501-0.12919-0.18501-0.16651-0.40082-0.28983-0.64751-0.37s-0.50586-0.12041-0.77721-0.12041zm9.741 0c-0.30835 0-0.59209 0.055391-0.85111 0.1664-0.25285 0.10484-0.4718 0.26213-0.65681 0.47181-0.17884 0.20351-0.31732 0.44702-0.416 0.7307-0.092506 0.28369-0.13901 0.60139-0.13901 0.95291 0 0.47486 0.083086 0.88506 0.2496 1.2304 0.17268 0.34536 0.41357 0.61342 0.72192 0.8046 0.30835 0.19118 0.67205 0.2868 1.0914 0.2868 0.32069 0 0.60756-0.052256 0.86041-0.1571 0.25285-0.11101 0.46866-0.26829 0.6475-0.47181 0.18501-0.20351 0.32349-0.44702 0.416-0.7307 0.098673-0.28369 0.14831-0.60453 0.14831-0.96222 0-0.4687-0.086221-0.87576-0.2589-1.2211-0.16651-0.35152-0.40426-0.62272-0.71262-0.8139s-0.67518-0.2868-1.1007-0.2868zm9.9627 0c-0.33302 0-0.62878 0.055391-0.8878 0.1664-0.25285 0.10484-0.45037 0.25586-0.59221 0.4532-0.13568 0.19735-0.2036 0.42883-0.2036 0.69401 0 0.30835 0.092491 0.56126 0.2775 0.75861 0.18501 0.19118 0.47189 0.32966 0.86041 0.416l0.80512 0.185c0.28368 0.067838 0.48696 0.15771 0.6103 0.26872 0.12951 0.10484 0.1943 0.25586 0.1943 0.4532 0 0.24052-0.09876 0.43177-0.29611 0.57361-0.19735 0.14184-0.48422 0.21239-0.86041 0.21239-0.22818 0-0.45602-0.03083-0.6842-0.092501-0.22818-0.061671-0.4628-0.17245-0.70332-0.3328-0.055503-0.037002-0.10776-0.052676-0.1571-0.046509-0.049336 0.0061671-0.092705 0.02811-0.12971 0.065112-0.030835 0.030835-0.052261 0.070553-0.064595 0.11989-0.006167 0.049337-0.003033 0.098975 0.009301 0.14831 0.018502 0.04317 0.052467 0.080269 0.1018 0.1111 0.24668 0.17884 0.50535 0.3053 0.7767 0.3793 0.27752 0.074005 0.55551 0.11059 0.83302 0.11059 0.53037 0 0.94945-0.11392 1.2578-0.3421 0.31452-0.23435 0.47181-0.54892 0.47181-0.94361 0-0.30835-0.09876-0.55186-0.29611-0.7307-0.19735-0.18501-0.49624-0.32401-0.8971-0.41651l-0.80512-0.185c-0.25902-0.061671-0.44975-0.15103-0.57309-0.2682-0.11717-0.11717-0.17622-0.27132-0.17622-0.4625 0-0.25285 0.095625-0.45299 0.2868-0.601 0.19735-0.14801 0.47482-0.22221 0.83251-0.22221 0.20351 0 0.40417 0.033965 0.60151 0.1018 0.19735 0.061671 0.38546 0.16043 0.56431 0.29611 0.055504 0.037002 0.10776 0.055294 0.1571 0.055294 0.049337 0 0.092706-0.015157 0.12971-0.045992 0.037003-0.030835 0.061563-0.067935 0.073898-0.1111 0.018501-0.049337 0.018501-0.098975 0-0.14831-0.012335-0.049336-0.043165-0.092189-0.092501-0.12919-0.18501-0.16651-0.40082-0.28983-0.64751-0.37s-0.50586-0.12041-0.77721-0.12041zm-6.4198 0.018604c-0.092506 0-0.16357 0.024561-0.21291 0.073897-0.049336 0.049336-0.073897 0.12354-0.073897 0.22221v2.59c0 0.38236 0.058526 0.7032 0.1757 0.96222 0.11717 0.25902 0.29327 0.45288 0.52762 0.58239 0.24052 0.12951 0.53941 0.1943 0.8971 0.1943 0.37619 0 0.70905-0.098243 0.99891-0.29559 0.21383-0.14559 0.37986-0.34102 0.49971-0.58394v0.57464c0 0.092506 0.024561 0.16305 0.073897 0.21239 0.049337 0.049336 0.11727 0.074414 0.2036 0.074414 0.17884 0 0.2682-0.095625 0.2682-0.2868v-4.024c0-0.098673-0.024561-0.17287-0.073897-0.22221-0.049337-0.049336-0.11727-0.073897-0.20361-0.073897-0.092506 0-0.16357 0.024561-0.21291 0.073897-0.049337 0.049336-0.073898 0.12354-0.073898 0.22221v2.3218c0 0.45636-0.12959 0.82632-0.38861 1.11-0.25902 0.27752-0.59815 0.41651-1.0175 0.41651-0.38236 0-0.66296-0.10503-0.84181-0.31471-0.17884-0.21585-0.2682-0.53982-0.2682-0.97152v-2.5621c0-0.098673-0.024561-0.17287-0.073898-0.22221-0.049336-0.049336-0.11727-0.073897-0.2036-0.073897zm-10.148 0.027905c-0.092506 0-0.16357 0.024561-0.21291 0.073897-0.049336 0.049336-0.073897 0.12302-0.073897 0.22169v3.9594c0 0.092506 0.024561 0.16671 0.073897 0.22221 0.049337 0.055504 0.1204 0.083199 0.21291 0.083199s0.15992-0.027695 0.20309-0.083199c0.049336-0.055504 0.074414-0.1297 0.074414-0.22221v-3.9594c0-0.098673-0.025078-0.17236-0.074414-0.22169-0.049337-0.049337-0.11675-0.073897-0.20309-0.073897zm6.6048 0.4346c0.46253 0 0.82622 0.16042 1.0914 0.48111 0.27135 0.32069 0.40721 0.77374 0.40721 1.3596 0 0.38853-0.061661 0.7219-0.185 0.99942-0.11717 0.27752-0.29013 0.49019-0.51832 0.6382-0.22201 0.14184-0.48695 0.21239-0.7953 0.21239-0.4502 0-0.81075-0.1599-1.0821-0.48059s-0.40721-0.77739-0.40721-1.3694c0-0.38853 0.058526-0.71825 0.1757-0.9896 0.12334-0.27752 0.29578-0.48706 0.5178-0.6289 0.22818-0.14801 0.49363-0.22221 0.79582-0.22221zm-18.788 1.9332h0.2775v0.30541c0 0.28369-0.058526 0.5366-0.1757 0.75861-0.11717 0.22201-0.27759 0.39759-0.48111 0.5271-0.19735 0.12334-0.42883 0.185-0.69402 0.185-0.32685 0-0.58552-0.086221-0.7767-0.2589s-0.2868-0.39789-0.2868-0.67541c0-0.22201 0.06166-0.39446 0.185-0.5178 0.12334-0.12334 0.33915-0.20694 0.6475-0.25011 0.31452-0.049336 0.74928-0.073897 1.3043-0.073897z" fill="#0d1d32"/>
    <g stroke-linecap="round" stroke-linejoin="round">
        <path d="m7.6729 1.5875h-6.8792" color="#000000" fill="#fff" style="-inkscape-stroke:none"/>
        <path d="m3.8485 1.2878 0.02274 0.02274c0.15842 0.15843 0.2653 0.35999 0.31006 0.57671h3.4913c0.16547 4.2e-4 0.30003-0.13322 0.30075-0.29869 2e-4 -0.07983-0.03142-0.15644-0.08786-0.21289-0.05645-0.05645-0.13307-0.08807-0.21289-0.08787zm-3.0696 0.0031c-0.1592 0.00756-0.2847 0.13828-0.28577 0.29766 7.23e-4 0.16547 0.13529 0.29911 0.30076 0.29869h2.2397l-0.555-0.55345c-0.02616-0.02616-0.06068-0.04083-0.09767-0.04083h-1.588c-0.004661-6.4e-4 -0.009312-0.00134-0.013953-0.0021z" color="#000000" fill="#286caa" style="-inkscape-stroke:none"/>
    </g>
    <g fill="#fff" stroke-linecap="round" stroke-linejoin="round">
        <path d="m0.79389 1.4868c-0.026791 6e-5 -0.052435 0.01088-0.071184 0.03002-0.018749 0.01913-0.029034 0.04499-0.028551 0.07178 4.27e-4 0.05482 0.044913 0.09908 0.099735 0.09922h2.0397l-0.20154-0.20102zm3.221 0c0.04201 0.06346 0.0774 0.13076 0.10594 0.20102h2.0149 1.5369c0.05482-1.4e-4 0.0993-0.0444 0.09973-0.09922 4.8e-4 -0.02679-0.0098-0.05265-0.02855-0.07179-0.01875-0.01913-0.04439-0.02995-0.07118-0.03001h-1.5369z" color="#000000" fill-opacity=".23" style="-inkscape-stroke:none"/>
        <path d="m7.6729 1.5875h-1.5366-5.3426" color="#000000" style="-inkscape-stroke:none"/>
    </g>
    <g stroke-linecap="round" stroke-linejoin="round">
        <path d="m5.0273 2.082c-0.45438 0-0.83008 0.37374-0.83008 0.82812v5.291a0.3 0.3 0 0 0 0.30078 0.30078 0.3 0.3 0 0 0 0.30078-0.30078v-5.291c0-0.13012 0.098397-0.22852 0.22852-0.22852h2.6465a0.3 0.3 0 0 0 0.29883-0.30078 0.3 0.3 0 0 0-0.29883-0.29883z" color="#000000" fill="#ffbf00" style="-inkscape-stroke:none"/>
        <path d="m5.0273 2.2812c-0.34629 0-0.62891 0.28261-0.62891 0.62891v5.291a0.1 0.1 0 0 0 0.099609 0.10156 0.1 0.1 0 0 0 0.099609-0.10156v-5.291c1e-7 -0.23821 0.19148-0.42969 0.42969-0.42969h2.6465a0.1 0.1 0 0 0 0.099609-0.099609 0.1 0.1 0 0 0-0.099609-0.099609z" color="#000000" fill="#fffdfd" fill-opacity=".23205" style="-inkscape-stroke:none"/>
        <path d="m0.79297 0.49414a0.3 0.3 0 0 0-0.29883 0.29883 0.3 0.3 0 0 0 0.29883 0.30078h1.5879c0.08996 0 0.17662 0.035998 0.24023 0.099609l0.68359 0.68359c0.063611 0.063611 0.099609 0.15027 0.099609 0.24023v6.084a0.3 0.3 0 0 0 0.30078 0.30078 0.3 0.3 0 0 0 0.29883-0.30078v-6.084c0-0.24886-0.09942-0.48809-0.27539-0.66406l-0.68359-0.68359c-0.17597-0.17597-0.4152-0.27539-0.66406-0.27539z" color="#000000" fill="#9c133a" style="-inkscape-stroke:none"/>
    </g>
    <path d="m5.9548 3.1093c-0.18768 0-0.33876-0.15109-0.33876-0.33876v-1.355c0-0.18767 0.15108-0.33876 0.33876-0.33876 0.18767 0 0.33876 0.15109 0.33876 0.33876v1.355c0 0.18767-0.15109 0.33876-0.33876 0.33876z" fill="#808080" filter="url(#filter29)" opacity=".5328" stroke="#000" stroke-linecap="square" stroke-linejoin="bevel" stroke-width=".12804"/>
    <path d="m5.9548 0.97719c0.18767 0 0.33876 0.15109 0.33876 0.33876v1.355c0 0.18767-0.15109 0.33876-0.33876 0.33876s-0.33876-0.15109-0.33876-0.33876v-1.355c0-0.18767 0.15109-0.33876 0.33876-0.33876z" fill="#fff" stroke="#0d1d32" stroke-linecap="square" stroke-linejoin="bevel" stroke-width=".2"/>
    <path d="m0.79297 0.69336a0.1 0.1 0 0 0-0.099609 0.099609 0.1 0.1 0 0 0 0.099609 0.10156h1.5879c0.14293 0 0.2798 0.055186 0.38086 0.15625l0.68555 0.68555c0.10106 0.10106 0.15625 0.23793 0.15625 0.38086v6.084a0.1 0.1 0 0 0 0.10156 0.10156 0.1 0.1 0 0 0 0.099609-0.10156v-6.084c0-0.19589-0.07828-0.38492-0.2168-0.52344l-0.68359-0.68359c-0.13852-0.13852-0.32754-0.2168-0.52344-0.2168z" color="#000000" fill="#fffdfd" fill-opacity=".23205" stroke-linecap="round" stroke-linejoin="round" style="-inkscape-stroke:none"/>
    <path d="m5.119 4.8621c0 0.18768-0.15109 0.33876-0.33876 0.33876h-1.355c-0.18767 0-0.33876-0.15108-0.33876-0.33876 0-0.18767 0.15109-0.33876 0.33876-0.33876h1.355c0.18767 0 0.33876 0.15109 0.33876 0.33876z" fill="#808080" filter="url(#filter29)" opacity=".5328" stroke="#000" stroke-linecap="square" stroke-linejoin="bevel" stroke-width=".12804"/>
    <path d="m5.119 4.7625c0 0.18767-0.15108 0.33876-0.33876 0.33876h-1.355c-0.18767 0-0.33876-0.15109-0.33876-0.33876s0.15109-0.33876 0.33876-0.33876h1.355c0.18768 0 0.33876 0.15109 0.33876 0.33876z" fill="#fff" stroke="#0d1d32" stroke-linecap="square" stroke-linejoin="bevel" stroke-width=".2"/>
</svg>
