<?xml version="1.0" encoding="UTF-8" standalone="no"?>
<svg xmlns:inkscape="http://www.inkscape.org/namespaces/inkscape" xmlns:sodipodi="http://sodipodi.sourceforge.net/DTD/sodipodi-0.dtd" xmlns="http://www.w3.org/2000/svg" xmlns:svg="http://www.w3.org/2000/svg" width="159.92" height="33.197" version="1.1" viewBox="0 0 42.313 8.7837" id="svg13" sodipodi:docname="logo-text-dark.svg" inkscape:version="1.4 (e7c3feb100, 2024-10-09)">
  <sodipodi:namedview id="namedview13" pagecolor="#ffffff" bordercolor="#666666" borderopacity="1.0" inkscape:showpageshadow="2" inkscape:pageopacity="0.0" inkscape:pagecheckerboard="0" inkscape:deskcolor="#d1d1d1" inkscape:zoom="24.14656" inkscape:cx="83.096722" inkscape:cy="14.929663" inkscape:window-width="1920" inkscape:window-height="1004" inkscape:window-x="0" inkscape:window-y="0" inkscape:window-maximized="1" inkscape:current-layer="g13"/>
  <defs id="defs3">
    <filter id="a" x="-0.23143169" y="-0.69395293" width="1.4628635" height="2.3879059" color-interpolation-filters="sRGB">
      <feGaussianBlur stdDeviation="0.16937546" id="feGaussianBlur1"/>
    </filter>
    <filter id="filter15" x="-0.39243215" y="-0.39590781" width="1.7848643" height="1.7918156" color-interpolation-filters="sRGB">
      <feGaussianBlur stdDeviation="0.085000079" id="feGaussianBlur2"/>
    </filter>
    <filter id="filter16" x="-0.67020617" y="-0.22362362" width="2.3404122" height="1.4472473" color-interpolation-filters="sRGB">
      <feGaussianBlur stdDeviation="0.1626682" id="feGaussianBlur3"/>
    </filter>
    <filter inkscape:collect="always" style="color-interpolation-filters:sRGB" id="filter15-3" x="-0.39243305" y="-0.39591001" width="1.7848661" height="1.79182">
      <feGaussianBlur inkscape:collect="always" stdDeviation="0.085000079" id="feGaussianBlur15"/>
    </filter>
  </defs>
  <path d="m24.128 2.2987a0.435 0.435 0 0 0-0.305 0.102c-0.068 0.062-0.102 0.154-0.102 0.278 0 0.123 0.034 0.219 0.102 0.287a0.435 0.435 0 0 0 0.305 0.101c0.13 0 0.228-0.034 0.296-0.101a0.37 0.37 0 0 0 0.11-0.287c0-0.124-0.036-0.216-0.11-0.278-0.068-0.068-0.166-0.102-0.296-0.102zm2.248 0.482c-0.093 0-0.164 0.024-0.213 0.074-0.05 0.043-0.074 0.114-0.074 0.212v1.156h-0.685a0.284 0.284 0 0 0-0.194 0.065 0.186 0.186 0 0 0-0.074 0.158 0.22 0.22 0 0 0 0.074 0.175c0.05 0.037 0.114 0.056 0.194 0.056h0.685v2.534c0 0.34 0.055 0.626 0.166 0.86 0.112 0.229 0.278 0.404 0.5 0.528 0.222 0.123 0.5 0.185 0.833 0.185 0.098 0 0.206-0.012 0.323-0.037 0.117-0.018 0.21-0.04 0.278-0.065a0.143 0.143 0 0 0 0.11-0.092 0.328 0.328 0 0 0 0.038-0.148c0-0.08-0.019-0.139-0.056-0.176a0.14 0.14 0 0 0-0.11-0.055 0.66 0.66 0 0 0-0.213 0.046c-0.08 0.024-0.182 0.037-0.306 0.037-0.357 0-0.613-0.099-0.768-0.296-0.154-0.198-0.23-0.484-0.23-0.86v-2.462h1.248c0.086 0 0.151-0.019 0.194-0.056a0.237 0.237 0 0 0 0.065-0.175 0.196 0.196 0 0 0-0.065-0.158c-0.043-0.043-0.108-0.065-0.194-0.065h-1.249v-1.155c0-0.098-0.025-0.17-0.074-0.212a0.274 0.274 0 0 0-0.203-0.074zm-17.993 1.35a1.85 1.85 0 0 0-1.036 0.305 1.475 1.475 0 0 0-0.5 0.602v-0.583c0-0.099-0.024-0.173-0.074-0.222-0.043-0.05-0.108-0.074-0.194-0.074-0.093 0-0.163 0.024-0.212 0.074-0.05 0.049-0.075 0.123-0.075 0.222v4.024c0 0.092 0.025 0.163 0.075 0.212 0.049 0.05 0.12 0.075 0.212 0.075 0.099 0 0.17-0.025 0.213-0.075 0.05-0.049 0.074-0.12 0.074-0.212v-2.396c0-0.42 0.12-0.753 0.36-1 0.24-0.246 0.58-0.39 1.018-0.434l0.13-0.01a0.36 0.36 0 0 0 0.213-0.082c0.043-0.05 0.061-0.118 0.055-0.204 0-0.08-0.025-0.139-0.074-0.176a0.262 0.262 0 0 0-0.185-0.046zm2.784 0.01c-0.253 0-0.514 0.036-0.786 0.11a3.382 3.382 0 0 0-0.786 0.315 0.274 0.274 0 0 0-0.13 0.12 0.278 0.278 0 0 0-0.027 0.158 0.41 0.41 0 0 0 0.055 0.129 0.22 0.22 0 0 0 0.12 0.074c0.056 0.012 0.117 0 0.185-0.037a3.39 3.39 0 0 1 0.694-0.296c0.222-0.062 0.45-0.093 0.685-0.093 0.363 0 0.629 0.096 0.795 0.287 0.167 0.185 0.25 0.484 0.25 0.897v0.334h-0.287c-0.69 0-1.233 0.04-1.628 0.12-0.394 0.073-0.675 0.206-0.841 0.397-0.167 0.191-0.25 0.454-0.25 0.787 0 0.253 0.067 0.48 0.203 0.684 0.142 0.204 0.33 0.364 0.564 0.481 0.24 0.117 0.512 0.176 0.814 0.176 0.26 0 0.494-0.046 0.704-0.139s0.385-0.225 0.527-0.398c0.083-0.101 0.15-0.216 0.203-0.34v0.572c0 0.092 0.025 0.163 0.074 0.212 0.05 0.05 0.117 0.075 0.204 0.075s0.15-0.025 0.194-0.075a0.313 0.313 0 0 0 0.065-0.212v-2.646c0-0.388-0.059-0.706-0.176-0.953a1.125 1.125 0 0 0-0.527-0.555c-0.235-0.123-0.534-0.185-0.898-0.185zm5.19 0c-0.388 0-0.734 0.095-1.036 0.286a1.483 1.483 0 0 0-0.527 0.597v-0.57c0-0.098-0.025-0.172-0.075-0.221-0.043-0.05-0.107-0.074-0.194-0.074-0.092 0-0.163 0.024-0.212 0.074-0.05 0.049-0.075 0.123-0.075 0.222v4.024c0 0.092 0.025 0.163 0.075 0.212 0.05 0.05 0.12 0.075 0.212 0.075 0.185 0 0.278-0.096 0.278-0.287v-2.331c0-0.463 0.132-0.83 0.398-1.101 0.27-0.278 0.629-0.416 1.073-0.416 0.388 0 0.672 0.104 0.851 0.314 0.179 0.203 0.268 0.53 0.268 0.98v2.554c0 0.092 0.025 0.163 0.074 0.212 0.05 0.05 0.12 0.075 0.213 0.075a0.274 0.274 0 0 0 0.203-0.075c0.05-0.049 0.075-0.12 0.075-0.212v-2.6c0-0.388-0.059-0.712-0.176-0.97a1.16 1.16 0 0 0-0.537-0.574c-0.234-0.13-0.53-0.195-0.888-0.195zm4.634 0a2.23 2.23 0 0 0-0.887 0.166 1.34 1.34 0 0 0-0.593 0.453 1.195 1.195 0 0 0-0.203 0.694c0 0.308 0.092 0.561 0.277 0.758 0.185 0.192 0.472 0.33 0.86 0.416l0.805 0.185c0.284 0.068 0.488 0.158 0.611 0.27 0.13 0.104 0.194 0.255 0.194 0.452a0.67 0.67 0 0 1-0.296 0.574c-0.197 0.142-0.484 0.212-0.86 0.212-0.228 0-0.456-0.03-0.684-0.092a2.414 2.414 0 0 1-0.704-0.333 0.232 0.232 0 0 0-0.157-0.046 0.218 0.218 0 0 0-0.13 0.065 0.251 0.251 0 0 0-0.064 0.12 0.402 0.402 0 0 0 0.01 0.148c0.018 0.043 0.052 0.08 0.101 0.111 0.247 0.179 0.505 0.305 0.777 0.38 0.277 0.073 0.555 0.11 0.832 0.11 0.53 0 0.95-0.114 1.259-0.342a1.12 1.12 0 0 0 0.471-0.944c0-0.308-0.098-0.552-0.296-0.73-0.197-0.186-0.496-0.325-0.897-0.417l-0.805-0.185c-0.259-0.062-0.45-0.151-0.574-0.268a0.625 0.625 0 0 1-0.175-0.463 0.72 0.72 0 0 1 0.287-0.6c0.197-0.149 0.474-0.223 0.832-0.223 0.204 0 0.404 0.034 0.602 0.102 0.197 0.061 0.385 0.16 0.564 0.296a0.286 0.286 0 0 0 0.157 0.055c0.05 0 0.093-0.015 0.13-0.046a0.222 0.222 0 0 0 0.074-0.11 0.205 0.205 0 0 0 0-0.15 0.232 0.232 0 0 0-0.093-0.128c-0.185-0.167-0.4-0.29-0.647-0.37s-0.506-0.12-0.778-0.12zm9.741 0a2.13 2.13 0 0 0-0.85 0.166 1.771 1.771 0 0 0-0.658 0.471 2.175 2.175 0 0 0-0.416 0.731 3.064 3.064 0 0 0-0.139 0.953c0 0.475 0.084 0.885 0.25 1.23 0.173 0.346 0.414 0.614 0.722 0.805s0.672 0.287 1.091 0.287c0.321 0 0.608-0.052 0.86-0.157a1.83 1.83 0 0 0 0.648-0.472c0.185-0.204 0.324-0.447 0.416-0.73 0.099-0.284 0.149-0.605 0.149-0.963 0-0.469-0.087-0.876-0.26-1.221-0.166-0.352-0.404-0.623-0.712-0.814s-0.675-0.287-1.1-0.287zm9.963 0c-0.333 0-0.629 0.055-0.888 0.166a1.34 1.34 0 0 0-0.592 0.453 1.195 1.195 0 0 0-0.204 0.694c0 0.308 0.093 0.561 0.278 0.758 0.185 0.192 0.472 0.33 0.86 0.416l0.806 0.185c0.283 0.068 0.486 0.158 0.61 0.27 0.13 0.104 0.194 0.255 0.194 0.452a0.67 0.67 0 0 1-0.296 0.574c-0.197 0.142-0.484 0.212-0.86 0.212-0.229 0-0.456-0.03-0.685-0.092a2.414 2.414 0 0 1-0.703-0.333 0.232 0.232 0 0 0-0.157-0.046 0.218 0.218 0 0 0-0.13 0.065 0.251 0.251 0 0 0-0.064 0.12 0.402 0.402 0 0 0 9e-3 0.148c0.018 0.043 0.052 0.08 0.102 0.111 0.246 0.179 0.505 0.305 0.776 0.38 0.278 0.073 0.556 0.11 0.833 0.11 0.53 0 0.95-0.114 1.258-0.342 0.315-0.235 0.472-0.55 0.472-0.944 0-0.308-0.099-0.552-0.296-0.73-0.197-0.186-0.496-0.325-0.897-0.417l-0.805-0.185c-0.26-0.062-0.45-0.151-0.573-0.268a0.626 0.626 0 0 1-0.177-0.463 0.72 0.72 0 0 1 0.287-0.6c0.198-0.149 0.475-0.223 0.833-0.223 0.203 0 0.404 0.034 0.601 0.102 0.198 0.061 0.386 0.16 0.565 0.296a0.286 0.286 0 0 0 0.157 0.055 0.199 0.199 0 0 0 0.13-0.046 0.222 0.222 0 0 0 0.073-0.11 0.205 0.205 0 0 0 0-0.15 0.232 0.232 0 0 0-0.092-0.128c-0.185-0.167-0.401-0.29-0.648-0.37s-0.506-0.12-0.777-0.12zm-6.42 0.018c-0.092 0-0.163 0.024-0.213 0.074-0.049 0.049-0.074 0.123-0.074 0.222v2.59c0 0.382 0.059 0.703 0.176 0.962 0.117 0.26 0.293 0.453 0.528 0.583 0.24 0.129 0.54 0.194 0.897 0.194 0.376 0 0.709-0.098 0.999-0.296 0.214-0.145 0.38-0.34 0.5-0.584v0.575c0 0.092 0.024 0.163 0.073 0.212 0.05 0.05 0.118 0.075 0.204 0.075 0.179 0 0.268-0.096 0.268-0.287v-4.024c0-0.099-0.024-0.173-0.074-0.222a0.275 0.275 0 0 0-0.203-0.074c-0.093 0-0.164 0.024-0.213 0.074-0.05 0.05-0.074 0.123-0.074 0.222v2.322c0 0.456-0.13 0.826-0.389 1.11-0.259 0.277-0.598 0.416-1.017 0.416-0.383 0-0.663-0.105-0.842-0.314-0.179-0.216-0.268-0.54-0.268-0.972v-2.562c0-0.099-0.025-0.173-0.074-0.222a0.275 0.275 0 0 0-0.204-0.074zm-10.148 0.028c-0.092 0-0.163 0.024-0.213 0.074-0.049 0.049-0.074 0.123-0.074 0.221v3.96c0 0.092 0.025 0.166 0.074 0.222 0.05 0.055 0.12 0.083 0.213 0.083s0.16-0.028 0.203-0.083a0.323 0.323 0 0 0 0.075-0.222v-3.96c0-0.098-0.025-0.172-0.075-0.221a0.274 0.274 0 0 0-0.203-0.074zm6.605 0.434c0.463 0 0.826 0.16 1.091 0.481 0.272 0.321 0.408 0.774 0.408 1.36 0 0.389-0.062 0.722-0.185 1a1.37 1.37 0 0 1-0.519 0.638 1.445 1.445 0 0 1-0.795 0.212c-0.45 0-0.81-0.16-1.082-0.48s-0.407-0.778-0.407-1.37c0-0.388 0.058-0.718 0.175-0.99a1.39 1.39 0 0 1 0.518-0.628 1.43 1.43 0 0 1 0.796-0.223zm-18.788 1.934h0.278v0.305a1.6 1.6 0 0 1-0.176 0.759 1.37 1.37 0 0 1-0.481 0.527 1.283 1.283 0 0 1-0.694 0.185c-0.327 0-0.586-0.087-0.777-0.26s-0.287-0.397-0.287-0.675c0-0.222 0.062-0.394 0.185-0.517 0.124-0.124 0.34-0.207 0.648-0.25 0.314-0.05 0.749-0.074 1.304-0.074z" id="path3"/>
  <g transform="translate(-.49388 .26468)" color="#000000" stroke-linecap="round" stroke-linejoin="round" id="g5">
    <path d="m7.673 1.587h-6.88" fill="#fff" style="-inkscape-stroke:none" id="path4"/>
    <path d="m3.849 1.288 0.022 0.023c0.159 0.158 0.266 0.36 0.31 0.576h3.492a0.3 0.3 0 1 0 0-0.6zm-3.07 3e-3a0.3 0.3 0 0 0-0.286 0.298 0.3 0.3 0 0 0 0.3 0.298h2.24l-0.554-0.553a0.137 0.137 0 0 0-0.098-0.041h-1.588a0.546 0.546 0 0 1-0.014-2e-3z" fill="#286caa" style="-inkscape-stroke:none" id="path5"/>
  </g>
  <g transform="translate(-.49388 .26468)" color="#000000" stroke-linecap="round" stroke-linejoin="round" id="g8">
    <path d="m5.027 2.082c-0.45671 0.0021787-0.82672 0.37129-0.83 0.828v5.291c-9e-7 0.16608 0.13492 0.30055 0.301 0.3 0.16569 0 0.3-0.13431 0.3-0.3v-5.29c0-0.131 0.1-0.23 0.23-0.23h19.58c0.1653-5.51e-4 0.299-0.1347 0.299-0.3-5.51e-4 -0.16529-0.1347-0.299-0.3-0.299z" fill="#ffbf00" style="-inkscape-stroke:none" id="path7"/>
    <path d="m0.793 0.494a0.3 0.3 0 0 0-0.299 0.299 0.3 0.3 0 0 0 0.299 0.3h1.588a0.34 0.34 0 0 1 0.24 0.1l0.684 0.684c0.063 0.064 0.1 0.15 0.1 0.24v6.084a0.3 0.3 0 0 0 0.3 0.301 0.3 0.3 0 0 0 0.299-0.3v-6.086a0.94 0.94 0 0 0-0.275-0.664l-0.684-0.682a0.94 0.94 0 0 0-0.665-0.276z" fill="#9c133a" style="-inkscape-stroke:none" id="path8"/>
  </g>
  <g stroke-linecap="square" stroke-linejoin="bevel" id="g13">
    <path d="m5.4611 3.3747a0.338 0.338 0 0 1-0.339-0.34v-1.353a0.339 0.339 0 1 1 0.678 0v1.353a0.338 0.338 0 0 1-0.34 0.338z" fill="#808080" filter="url(#filter16)" opacity=".5" stroke="#808080" stroke-width=".128" id="path9"/>
    <path d="m5.4611 1.2417c0.187 0 0.339 0.151 0.339 0.339v1.355a0.339 0.339 0 1 1-0.678 0v-1.355c0-0.188 0.151-0.339 0.339-0.339z" fill="#fff" stroke="#0d1d32" stroke-width=".2" id="path10"/>
    <path d="m4.6251 5.1267a0.338 0.338 0 0 1-0.339 0.339h-1.355a0.339 0.339 0 1 1 0-0.678h1.355c0.188 0 0.339 0.151 0.339 0.34z" fill="#808080" filter="url(#a)" opacity=".5" stroke="#808080" stroke-width=".128" id="path11"/>
    <path d="m4.6251 5.0277a0.338 0.338 0 0 1-0.339 0.338h-1.355a0.3385 0.3385 0 1 1 0-0.677h1.355c0.188 0 0.339 0.15 0.339 0.339z" fill="#fff" stroke="#0d1d32" stroke-width=".2" id="path12"/>
  </g>
  <path fill="#ffffff" stroke="#0d1d32" stroke-linecap="square" stroke-linejoin="bevel" stroke-width="0.2" d="m 24.465639,2.728675 c 1e-6,0.1870635 -0.151937,0.3385534 -0.339,0.338 h -0.0055 c -0.451333,0 -0.451333,-0.677 0,-0.677 h 0.0055 c 0.188,0 0.339,0.15 0.339,0.339 z" id="path15" sodipodi:nodetypes="scssss" style="opacity:0.5;mix-blend-mode:normal;fill:#808080;fill-opacity:1;stroke:#000000;stroke-width:0.128063;stroke-dasharray:none;stroke-opacity:1;filter:url(#filter15-3)" transform="matrix(1.3549587,0,0,1.3549587,-8.5551471,-0.93921093)"/>
  <circle style="fill:#ffffff;fill-opacity:1;stroke:#0d1d32;stroke-width:0.200033;stroke-linecap:round;stroke-dasharray:none;stroke-opacity:1;paint-order:markers fill stroke" id="path16" cx="24.128" cy="2.6454725" r="0.57053465"/>
</svg>
