<?xml version="1.0" encoding="UTF-8" standalone="no"?>
<svg xmlns:inkscape="http://www.inkscape.org/namespaces/inkscape" xmlns:sodipodi="http://sodipodi.sourceforge.net/DTD/sodipodi-0.dtd" xmlns="http://www.w3.org/2000/svg" xmlns:svg="http://www.w3.org/2000/svg" width="159.92265" height="33.196842" viewBox="0 0 42.312869 8.783677" version="1.1" id="svg13" sodipodi:docname="logo-text.svg" inkscape:version="1.4 (e7c3feb100, 2024-10-09)">
  <sodipodi:namedview id="namedview13" pagecolor="#ffffff" bordercolor="#666666" borderopacity="1.0" inkscape:showpageshadow="2" inkscape:pageopacity="0.0" inkscape:pagecheckerboard="0" inkscape:deskcolor="#d1d1d1" showguides="false" inkscape:zoom="4.1213031" inkscape:cx="1.3345294" inkscape:cy="53.017212" inkscape:window-width="1920" inkscape:window-height="1004" inkscape:window-x="0" inkscape:window-y="0" inkscape:window-maximized="1" inkscape:current-layer="svg13">
    <sodipodi:guide position="4.0048423,-0.29867654" orientation="0,-1" id="guide13" inkscape:locked="false"/>
  </sodipodi:namedview>
  <defs id="defs1">
    <filter id="a" width="1.4628635" height="2.3879059" x="-0.23143169" y="-0.69395293" color-interpolation-filters="sRGB">
      <feGaussianBlur stdDeviation="0.16937546" id="feGaussianBlur1"/>
    </filter>
    <filter inkscape:collect="always" style="color-interpolation-filters:sRGB" id="filter15" x="-0.39243305" y="-0.39591001" width="1.7848661" height="1.79182">
      <feGaussianBlur inkscape:collect="always" stdDeviation="0.085000079" id="feGaussianBlur15"/>
    </filter>
    <filter id="filter16" width="2.3404122" height="1.4472473" x="-0.67020617" y="-0.22362362" color-interpolation-filters="sRGB">
      <feGaussianBlur stdDeviation="0.1626682" id="feGaussianBlur16"/>
    </filter>
  </defs>
  <path fill="#fff" d="m 24.127661,2.2986765 a 0.435,0.435 0 0 0 -0.305,0.102 c -0.068,0.062 -0.102,0.154 -0.102,0.278 0,0.123 0.034,0.219 0.102,0.287 a 0.435,0.435 0 0 0 0.305,0.101 c 0.13,0 0.228,-0.034 0.296,-0.101 a 0.37,0.37 0 0 0 0.11,-0.287 c 0,-0.124 -0.036,-0.216 -0.11,-0.278 -0.068,-0.068 -0.166,-0.102 -0.296,-0.102 z m 2.248,0.482 c -0.093,0 -0.164,0.024 -0.213,0.074 -0.05,0.043 -0.074,0.114 -0.074,0.212 v 1.156 h -0.685 a 0.284,0.284 0 0 0 -0.194,0.065 0.186,0.186 0 0 0 -0.074,0.158 0.22,0.22 0 0 0 0.074,0.175 c 0.05,0.037 0.114,0.056 0.194,0.056 h 0.685 v 2.534 c 0,0.34 0.055,0.626 0.166,0.86 0.112,0.229 0.278,0.404 0.5,0.528 0.222,0.123 0.5,0.185 0.833,0.185 0.098,0 0.206,-0.012 0.323,-0.037 0.117,-0.018 0.21,-0.04 0.278,-0.065 a 0.143,0.143 0 0 0 0.11,-0.092 0.328,0.328 0 0 0 0.038,-0.148 c 0,-0.08 -0.019,-0.139 -0.056,-0.176 a 0.14,0.14 0 0 0 -0.11,-0.055 0.66,0.66 0 0 0 -0.213,0.046 c -0.08,0.024 -0.182,0.037 -0.306,0.037 -0.357,0 -0.613,-0.099 -0.768,-0.296 -0.154,-0.198 -0.23,-0.484 -0.23,-0.86 v -2.462 h 1.248 c 0.086,0 0.151,-0.019 0.194,-0.056 a 0.237,0.237 0 0 0 0.065,-0.175 0.196,0.196 0 0 0 -0.065,-0.158 c -0.043,-0.043 -0.108,-0.065 -0.194,-0.065 h -1.249 v -1.155 c 0,-0.098 -0.025,-0.17 -0.074,-0.212 a 0.274,0.274 0 0 0 -0.203,-0.074 z m -17.9929995,1.35 a 1.85,1.85 0 0 0 -1.036,0.305 1.475,1.475 0 0 0 -0.5,0.602 v -0.583 c 0,-0.099 -0.024,-0.173 -0.074,-0.222 -0.043,-0.05 -0.108,-0.074 -0.194,-0.074 -0.093,0 -0.163,0.024 -0.212,0.074 -0.05,0.049 -0.075,0.123 -0.075,0.222 v 4.024 c 0,0.092 0.025,0.163 0.075,0.212 0.049,0.05 0.12,0.075 0.212,0.075 0.099,0 0.17,-0.025 0.213,-0.075 0.05,-0.049 0.074,-0.12 0.074,-0.212 v -2.396 c 0,-0.42 0.12,-0.753 0.36,-1 0.24,-0.246 0.58,-0.39 1.018,-0.434 l 0.13,-0.01 a 0.36,0.36 0 0 0 0.213,-0.082 c 0.043,-0.05 0.061,-0.118 0.055,-0.204 0,-0.08 -0.025,-0.139 -0.074,-0.176 a 0.262,0.262 0 0 0 -0.185,-0.046 z m 2.7839995,0.01 c -0.253,0 -0.514,0.036 -0.786,0.11 a 3.382,3.382 0 0 0 -0.786,0.315 0.274,0.274 0 0 0 -0.1299995,0.12 0.278,0.278 0 0 0 -0.027,0.158 0.41,0.41 0 0 0 0.055,0.129 0.22,0.22 0 0 0 0.1199995,0.074 c 0.056,0.012 0.117,0 0.185,-0.037 a 3.39,3.39 0 0 1 0.694,-0.296 c 0.222,-0.062 0.45,-0.093 0.685,-0.093 0.363,0 0.629,0.096 0.795,0.287 0.167,0.185 0.25,0.484 0.25,0.897 v 0.334 h -0.287 c -0.69,0 -1.233,0.04 -1.628,0.12 -0.394,0.073 -0.675,0.206 -0.8409995,0.397 -0.167,0.191 -0.25,0.454 -0.25,0.787 0,0.253 0.067,0.48 0.203,0.684 0.1419995,0.204 0.3299995,0.364 0.5639995,0.481 0.24,0.117 0.512,0.176 0.814,0.176 0.26,0 0.494,-0.046 0.704,-0.139 0.21,-0.093 0.385,-0.225 0.527,-0.398 0.083,-0.101 0.15,-0.216 0.203,-0.34 v 0.572 c 0,0.092 0.025,0.163 0.074,0.212 0.05,0.05 0.117,0.075 0.204,0.075 0.087,0 0.15,-0.025 0.194,-0.075 a 0.313,0.313 0 0 0 0.065,-0.212 v -2.646 c 0,-0.388 -0.059,-0.706 -0.176,-0.953 a 1.125,1.125 0 0 0 -0.527,-0.555 c -0.235,-0.123 -0.534,-0.185 -0.898,-0.185 z m 5.19,0 c -0.388,0 -0.734,0.095 -1.036,0.286 a 1.483,1.483 0 0 0 -0.527,0.597 v -0.57 c 0,-0.098 -0.025,-0.172 -0.075,-0.221 -0.043,-0.05 -0.107,-0.074 -0.194,-0.074 -0.092,0 -0.163,0.024 -0.212,0.074 -0.05,0.049 -0.075,0.123 -0.075,0.222 v 4.024 c 0,0.092 0.025,0.163 0.075,0.212 0.05,0.05 0.12,0.075 0.212,0.075 0.185,0 0.278,-0.096 0.278,-0.287 v -2.331 c 0,-0.463 0.132,-0.83 0.398,-1.101 0.27,-0.278 0.629,-0.416 1.073,-0.416 0.388,0 0.672,0.104 0.851,0.314 0.179,0.203 0.268,0.53 0.268,0.98 v 2.554 c 0,0.092 0.025,0.163 0.074,0.212 0.05,0.05 0.12,0.075 0.213,0.075 a 0.274,0.274 0 0 0 0.203,-0.075 c 0.05,-0.049 0.075,-0.12 0.075,-0.212 v -2.6 c 0,-0.388 -0.059,-0.712 -0.176,-0.97 a 1.16,1.16 0 0 0 -0.537,-0.574 c -0.234,-0.13 -0.53,-0.195 -0.888,-0.195 z m 4.634,0 a 2.23,2.23 0 0 0 -0.887,0.166 1.34,1.34 0 0 0 -0.593,0.453 1.195,1.195 0 0 0 -0.203,0.694 c 0,0.308 0.092,0.561 0.277,0.758 0.185,0.192 0.472,0.33 0.86,0.416 l 0.805,0.185 c 0.284,0.068 0.488,0.158 0.611,0.27 0.13,0.104 0.194,0.255 0.194,0.452 a 0.67,0.67 0 0 1 -0.296,0.574 c -0.197,0.142 -0.484,0.212 -0.86,0.212 -0.228,0 -0.456,-0.03 -0.684,-0.092 a 2.414,2.414 0 0 1 -0.704,-0.333 0.232,0.232 0 0 0 -0.157,-0.046 0.218,0.218 0 0 0 -0.13,0.065 0.251,0.251 0 0 0 -0.064,0.12 0.402,0.402 0 0 0 0.01,0.148 c 0.018,0.043 0.052,0.08 0.101,0.111 0.247,0.179 0.505,0.305 0.777,0.38 0.277,0.073 0.555,0.11 0.832,0.11 0.53,0 0.95,-0.114 1.259,-0.342 a 1.12,1.12 0 0 0 0.471,-0.944 c 0,-0.308 -0.098,-0.552 -0.296,-0.73 -0.197,-0.186 -0.496,-0.325 -0.897,-0.417 l -0.805,-0.185 c -0.259,-0.062 -0.45,-0.151 -0.574,-0.268 a 0.625,0.625 0 0 1 -0.175,-0.463 0.72,0.72 0 0 1 0.287,-0.6 c 0.197,-0.149 0.474,-0.223 0.832,-0.223 0.204,0 0.404,0.034 0.602,0.102 0.197,0.061 0.385,0.16 0.564,0.296 a 0.286,0.286 0 0 0 0.157,0.055 c 0.05,0 0.093,-0.015 0.13,-0.046 a 0.222,0.222 0 0 0 0.074,-0.11 0.205,0.205 0 0 0 0,-0.15 0.232,0.232 0 0 0 -0.093,-0.128 c -0.185,-0.167 -0.4,-0.29 -0.647,-0.37 -0.247,-0.08 -0.506,-0.12 -0.778,-0.12 z m 9.741,0 a 2.13,2.13 0 0 0 -0.85,0.166 1.771,1.771 0 0 0 -0.658,0.471 2.175,2.175 0 0 0 -0.416,0.731 3.064,3.064 0 0 0 -0.139,0.953 c 0,0.475 0.084,0.885 0.25,1.23 0.173,0.346 0.414,0.614 0.722,0.805 0.308,0.191 0.672,0.287 1.091,0.287 0.321,0 0.608,-0.052 0.86,-0.157 a 1.83,1.83 0 0 0 0.648,-0.472 c 0.185,-0.204 0.324,-0.447 0.416,-0.73 0.099,-0.284 0.149,-0.605 0.149,-0.963 0,-0.469 -0.087,-0.876 -0.26,-1.221 -0.166,-0.352 -0.404,-0.623 -0.712,-0.814 -0.308,-0.191 -0.675,-0.287 -1.1,-0.287 z m 9.963,0 c -0.333,0 -0.629,0.055 -0.888,0.166 a 1.34,1.34 0 0 0 -0.592,0.453 1.195,1.195 0 0 0 -0.204,0.694 c 0,0.308 0.093,0.561 0.278,0.758 0.185,0.192 0.472,0.33 0.86,0.416 l 0.806,0.185 c 0.283,0.068 0.486,0.158 0.61,0.27 0.13,0.104 0.194,0.255 0.194,0.452 a 0.67,0.67 0 0 1 -0.296,0.574 c -0.197,0.142 -0.484,0.212 -0.86,0.212 -0.229,0 -0.456,-0.03 -0.685,-0.092 a 2.414,2.414 0 0 1 -0.703,-0.333 0.232,0.232 0 0 0 -0.157,-0.046 0.218,0.218 0 0 0 -0.13,0.065 0.251,0.251 0 0 0 -0.064,0.12 0.402,0.402 0 0 0 0.009,0.148 c 0.018,0.043 0.052,0.08 0.102,0.111 0.246,0.179 0.505,0.305 0.776,0.38 0.278,0.073 0.556,0.11 0.833,0.11 0.53,0 0.95,-0.114 1.258,-0.342 0.315,-0.235 0.472,-0.55 0.472,-0.944 0,-0.308 -0.099,-0.552 -0.296,-0.73 -0.197,-0.186 -0.496,-0.325 -0.897,-0.417 l -0.805,-0.185 c -0.26,-0.062 -0.45,-0.151 -0.573,-0.268 a 0.626,0.626 0 0 1 -0.177,-0.463 0.72,0.72 0 0 1 0.287,-0.6 c 0.198,-0.149 0.475,-0.223 0.833,-0.223 0.203,0 0.404,0.034 0.601,0.102 0.198,0.061 0.386,0.16 0.565,0.296 a 0.286,0.286 0 0 0 0.157,0.055 0.199,0.199 0 0 0 0.13,-0.046 0.222,0.222 0 0 0 0.073,-0.11 0.205,0.205 0 0 0 0,-0.15 0.232,0.232 0 0 0 -0.092,-0.128 c -0.185,-0.167 -0.401,-0.29 -0.648,-0.37 -0.247,-0.08 -0.506,-0.12 -0.777,-0.12 z m -6.42,0.018 c -0.092,0 -0.163,0.024 -0.213,0.074 -0.049,0.049 -0.074,0.123 -0.074,0.222 v 2.59 c 0,0.382 0.059,0.703 0.176,0.962 0.117,0.26 0.293,0.453 0.528,0.583 0.24,0.129 0.54,0.194 0.897,0.194 0.376,0 0.709,-0.098 0.999,-0.296 0.214,-0.145 0.38,-0.34 0.5,-0.584 v 0.575 c 0,0.092 0.024,0.163 0.073,0.212 0.05,0.05 0.118,0.075 0.204,0.075 0.179,0 0.268,-0.096 0.268,-0.287 v -4.024 c 0,-0.099 -0.024,-0.173 -0.074,-0.222 a 0.275,0.275 0 0 0 -0.203,-0.074 c -0.093,0 -0.164,0.024 -0.213,0.074 -0.05,0.05 -0.074,0.123 -0.074,0.222 v 2.322 c 0,0.456 -0.13,0.826 -0.389,1.11 -0.259,0.277 -0.598,0.416 -1.017,0.416 -0.383,0 -0.663,-0.105 -0.842,-0.314 -0.179,-0.216 -0.268,-0.54 -0.268,-0.972 v -2.562 c 0,-0.099 -0.025,-0.173 -0.074,-0.222 a 0.275,0.275 0 0 0 -0.204,-0.074 z m -10.148,0.028 c -0.092,0 -0.163,0.024 -0.213,0.074 -0.049,0.049 -0.074,0.123 -0.074,0.221 v 3.96 c 0,0.092 0.025,0.166 0.074,0.222 0.05,0.055 0.12,0.083 0.213,0.083 0.093,0 0.16,-0.028 0.203,-0.083 a 0.323,0.323 0 0 0 0.075,-0.222 v -3.96 c 0,-0.098 -0.025,-0.172 -0.075,-0.221 a 0.274,0.274 0 0 0 -0.203,-0.074 z m 6.605,0.434 c 0.463,0 0.826,0.16 1.091,0.481 0.272,0.321 0.408,0.774 0.408,1.36 0,0.389 -0.062,0.722 -0.185,1 a 1.37,1.37 0 0 1 -0.519,0.638 1.445,1.445 0 0 1 -0.795,0.212 c -0.45,0 -0.81,-0.16 -1.082,-0.48 -0.272,-0.32 -0.407,-0.778 -0.407,-1.37 0,-0.388 0.058,-0.718 0.175,-0.99 a 1.39,1.39 0 0 1 0.518,-0.628 1.43,1.43 0 0 1 0.796,-0.223 z m -18.788,1.934 h 0.278 v 0.305 a 1.6,1.6 0 0 1 -0.176,0.759 1.37,1.37 0 0 1 -0.481,0.527 1.283,1.283 0 0 1 -0.694,0.185 c -0.327,0 -0.586,-0.087 -0.777,-0.26 -0.191,-0.173 -0.287,-0.397 -0.287,-0.675 0,-0.222 0.062,-0.394 0.185,-0.517 0.124,-0.124 0.34,-0.207 0.648,-0.25 0.314,-0.05 0.749,-0.074 1.304,-0.074 z" id="path1" style="fill:#ffffff"/>
  <g stroke-linecap="round" stroke-linejoin="round" color="#000000" id="g3" transform="translate(-0.493875,0.26467654)">
    <path fill="#ffffff" d="M 7.673,1.587 H 0.793" style="-inkscape-stroke:none" id="path2"/>
    <path fill="#286caa" d="m 3.849,1.288 0.022,0.023 c 0.159,0.158 0.266,0.36 0.31,0.576 h 3.492 a 0.3,0.3 0 1 0 0,-0.6 z m -3.07,0.003 a 0.3,0.3 0 0 0 -0.286,0.298 0.3,0.3 0 0 0 0.3,0.298 h 2.24 L 2.479,1.334 A 0.137,0.137 0 0 0 2.381,1.293 H 0.793 A 0.546,0.546 0 0 1 0.779,1.291 Z" style="-inkscape-stroke:none;fill:#3ca2ff;fill-opacity:1" id="path3"/>
  </g>
  <path fill="#ffffff" stroke="#0d1d32" stroke-linecap="square" stroke-linejoin="bevel" stroke-width="0.2" d="m 24.465639,2.728675 c 1e-6,0.1870635 -0.151937,0.3385534 -0.339,0.338 h -0.0055 c -0.451333,0 -0.451333,-0.677 0,-0.677 h 0.0055 c 0.188,0 0.339,0.15 0.339,0.339 z" id="path15" sodipodi:nodetypes="scssss" style="opacity:0.5;mix-blend-mode:normal;fill:#808080;fill-opacity:1;stroke:#000000;stroke-width:0.128063;stroke-dasharray:none;stroke-opacity:1;filter:url(#filter15)" transform="matrix(1.3549616,0,0,1.3549616,-8.5590792,-0.90945528)"/>
  <g stroke-linecap="round" stroke-linejoin="round" color="#000000" id="g8" transform="translate(-0.493875,0.26467654)">
    <path fill="#ffbf00" d="M 5.027,2.082 C 4.5702881,2.0841787 4.2002805,2.4532947 4.197,2.91 v 5.291 c -9e-7,0.1660767 0.1349242,0.3005536 0.301,0.3 0.1656854,0 0.3,-0.1343146 0.3,-0.3 v -5.29 c 0,-0.131 0.1,-0.23 0.23,-0.23 h 19.58 c 0.165295,-5.51e-4 0.299001,-0.1347043 0.299,-0.3 -5.51e-4,-0.1652948 -0.134704,-0.2990009 -0.3,-0.299 z" style="-inkscape-stroke:none" id="path6" sodipodi:nodetypes="ccccssscccc"/>
    <path fill="#9c133a" d="m 0.793,0.494 a 0.3,0.3 0 0 0 -0.299,0.299 0.3,0.3 0 0 0 0.299,0.3 h 1.588 a 0.34,0.34 0 0 1 0.24,0.1 l 0.684,0.684 c 0.063,0.064 0.1,0.15 0.1,0.24 v 6.084 a 0.3,0.3 0 0 0 0.3,0.301 0.3,0.3 0 0 0 0.299,-0.3 V 2.116 A 0.94,0.94 0 0 0 3.729,1.452 L 3.045,0.77 A 0.94,0.94 0 0 0 2.38,0.494 Z" style="-inkscape-stroke:none;fill:#ec1d57;fill-opacity:1" id="path8"/>
  </g>
  <path fill="#808080" stroke="#000000" stroke-linecap="square" stroke-linejoin="bevel" stroke-width="0.128" d="m 5.461125,3.3746765 a 0.338,0.338 0 0 1 -0.339,-0.34 v -1.353 a 0.339,0.339 0 1 1 0.678,0 v 1.353 a 0.338,0.338 0 0 1 -0.34,0.338 z" filter="url(#a)" opacity="0.533" id="path9" style="filter:url(#filter16);opacity:0.5;stroke:#000000;stroke-opacity:1;fill:#000000;fill-opacity:1"/>
  <path fill="#ffffff" stroke="#0d1d32" stroke-linecap="square" stroke-linejoin="bevel" stroke-width="0.200002" d="m 5.461125,1.2416771 c 0.1870013,0 0.3390023,0.1510011 0.3390023,0.3390024 v 1.3550094 a 0.33900237,0.33900237 0 1 1 -0.6780046,0 V 1.5806795 c 0,-0.1880013 0.151001,-0.3390024 0.3390023,-0.3390024 z" id="path10" style="stroke:#2c4053;stroke-opacity:1;stroke-width:0.20003288;stroke-dasharray:none"/>
  <path fill="#808080" stroke="#000000" stroke-linecap="square" stroke-linejoin="bevel" stroke-width="0.128" d="m 4.625125,5.1266765 a 0.338,0.338 0 0 1 -0.339,0.339 h -1.355 a 0.339,0.339 0 1 1 0,-0.678 h 1.355 c 0.188,0 0.339,0.151 0.339,0.34 z" filter="url(#a)" opacity="0.533" id="path12" style="opacity:0.5;stroke:#000000;stroke-opacity:1;fill:#000000;fill-opacity:1"/>
  <path fill="#ffffff" stroke="#0d1d32" stroke-linecap="square" stroke-linejoin="bevel" stroke-width="0.2" d="m 4.625125,5.0276765 a 0.33800001,0.33800001 0 0 1 -0.339,0.338 h -1.355 a 0.33850002,0.33850002 0 1 1 0,-0.677 h 1.355 c 0.188,0 0.339,0.15 0.339,0.339 z" id="path13" style="stroke:#2c4053;stroke-opacity:1"/>
  <circle style="opacity:1;fill:#ffffff;fill-opacity:1;stroke:#2c4053;stroke-width:0.200033;stroke-linecap:round;stroke-dasharray:none;stroke-opacity:1;paint-order:markers fill stroke" id="path16" cx="24.124138" cy="2.6752357" r="0.57053584"/>
</svg>
